<svg xmlns="http://www.w3.org/2000/svg" width="131.233" height="131.233" viewBox="0 0 131.233 131.233">
  <path id="Icon_awesome-clock" data-name="Icon awesome-clock" d="M66.179.562A65.616,65.616,0,1,0,131.8,66.179,65.605,65.605,0,0,0,66.179.562Zm15.108,92.63L57.95,76.233a3.2,3.2,0,0,1-1.3-2.566V29.137a3.184,3.184,0,0,1,3.175-3.175h12.7A3.184,3.184,0,0,1,75.7,29.137V65.57L92.5,77.794a3.173,3.173,0,0,1,.688,4.445L85.731,92.5A3.2,3.2,0,0,1,81.286,93.193Z" transform="translate(-0.563 -0.563)" fill="#1ad4a8"/>
</svg>