<svg xmlns="http://www.w3.org/2000/svg" width="131.233" height="131.233" viewBox="0 0 131.233 131.233">
  <path id="Icon_awesome-compass" data-name="Icon awesome-compass" d="M71.6,60.191a8.466,8.466,0,1,1-11.972,0A8.464,8.464,0,0,1,71.6,60.191ZM65.616.563A65.616,65.616,0,1,1,0,66.179,65.615,65.615,0,0,1,65.616.563ZM32.242,39.734,49.7,77.926A8.45,8.45,0,0,0,53.869,82.1l38.19,17.454a5.231,5.231,0,0,0,6.932-6.932L81.534,54.429a8.45,8.45,0,0,0-4.172-4.172L39.171,32.8A5.23,5.23,0,0,0,32.242,39.734Z" transform="translate(0 -0.563)" fill="#1ad4a8"/>
</svg>